<?xml version="1.0" encoding="UTF-8"?>
<svg id="Layer_2" data-name="Layer 2" xmlns="http://www.w3.org/2000/svg" viewBox="0 0 646.45 361.34">
  <defs>
    <style>
      .cls-1 {
        fill: #fff;
      }
    </style>
  </defs>
  <g id="Layer_1-2" data-name="Layer 1">
    <g>
      <path class="cls-1" d="M83.5,279.08c5.98,18.26,9.86,37.5,15.75,55.75.14.44.85,4.11,1.74,3.01l15.37-58.88-2.37-11.62h23.5l-2.47,12.2,14.97,59.3,2.83-7.91,14.67-52.33v-11.25h24.75l.54,1.02c-1.85,3.81-4.09,7.49-5.53,11.49-8,22.24-12.29,47.38-20.14,69.86l.88,10.63c-.5-.16-1.07.5-1.25.5h-26l-15.01-53.5-15.49,53.5h-26.5c-2,0,1.31-9.71.13-11.13-8.03-22.49-12.37-47.39-20.23-69.77-1.53-4.36-4.38-8.14-5.65-12.6h24.75l.75.75v11Z"/>
      <path class="cls-1" d="M22.75,135.83l28.51,45.01c.7.16.83-.44,1.16-.84,2.19-2.59,5.44-8.33,7.49-11.51,6.92-10.72,13.47-21.75,20.09-32.66h23l-2.02,11.73c1.12,22.46-1.42,46.24,0,68.54.28,4.42,1.89,8.35,2.02,12.73h-23.5l2.02-10.73-.03-50.77-28.34,41.9c-.92.11-2.02.25-2.92.13-2.52-.33-23.96-38.22-28.73-42.04l-.02,50.27,2.52,11.23H0c.07-3.88,2.15-8,2.53-11.72,2.21-21.99-1.72-47.66-.01-70.04l-2.52-11.23h22.75Z"/>
      <path class="cls-1" d="M531,195.83v-49.75c0-1.16-1.62-5.52-1.88-7.12-.17-1.05-.15-2.09-.12-3.13h24l-2.02,9.73.04,81.54-.78,1.72h-16.25c-.89-2.08-2.62-4.32-4.02-6.11-13.41-17.24-26.39-34.98-40.21-51.91-.49-.6-.62-1.85-1.02-1.98-1.14-.19-.68.5-.74,1.25-1.06,12.74-.94,34.7-.02,47.53.27,3.77,1.68,7.47,2.02,11.23h-24c.27-3.99,1.76-7.72,2.02-11.73,1.5-22.91-1.19-47.45,0-70.54l-2.02-10.73h17.75l45.84,59.16,1.41.84Z"/>
      <path class="cls-1" d="M325.25,135.83c1.2.17,3.42,1.31,4.58,1.92,2.98,1.56,14.14,11.26,15.88,14.12,2.94,4.85,3.03,21.43,1.56,26.98-1.9,7.14-10.26,10.58-14.24,16.21l10.89,22.11,7.59,11.66h-25.5c-1.83-11.03-8.08-19.99-12.5-30h-19.75c-.71.44-.69,1-.78,1.72-.44,3.78-.34,12.65.02,16.53.34,3.66,2.17,7.98,2.5,11.75h-24l2.02-11.73c-1.13-22.45,1.44-46.26,0-68.54-.28-4.42-1.97-8.41-2.02-12.73h53.75ZM293.75,151.33l-.75.75v30l.75.75h21.5c2.91,0,11.04-7.17,12.1-9.9,1.16-3,1.05-9.32-.52-12.18-1.15-2.08-8.86-9.42-11.08-9.42h-22Z"/>
      <path class="cls-1" d="M512,305.83h40c.32-8.27,1.11-17.51.52-25.77-.26-3.66-2.34-8.7-2.31-11.71,0-.58.03-.65.55-1.02h23c.51.37.54.44.55,1.02.03,3.28-2.43,8.14-2.32,11.71,1.39,22.23-1.77,46.56,0,68.54.31,3.78,1.84,7.97,2.52,11.73-.5-.15-1.07.5-1.25.5h-22.5l-.55-1.02c3.29-11.98,2.56-24.71,1.8-36.98h-40v29.75c0,.11.77.94.88,1.62.19,1.14,1.62,6.63.37,6.63h-22.5c-.07,0-1.23-.53-1.26-.8l2.53-10.42c-1.76-25.49,2.99-54.54-1.64-79.4-.21-1.13-1.63-1.89-.13-2.87h23c1.62,0-.84,5.84-.46,7.04-.09.61-.79,1.47-.79,1.71v29.75Z"/>
      <path class="cls-1" d="M314,3.33l-2.02,11.23c1.57,22.73-2.01,48.12,0,70.54.27,3.02,2.31,7.65,2.32,10.2,0,.59-.05.65-.55,1.03h-23.75c.17-2.99,1.71-6.43,2-9.25.95-9-.72-19.58,0-28.75h-40l-.02,29.27,1.52,8.73h-24c.45-3.55,2.18-7.76,2.53-11.22,2.24-22.3-1.75-48.35-.01-71.04l-2.52-10.73h24l-1.52,8.73.02,29.77h40c-.57-12.74,1.57-25.85-2-38.21.09-.85,1.45-.29,1.75-.29h22.25Z"/>
      <path class="cls-1" d="M265,267.33l-.28,11.53c8.76,22.26,14.46,46.62,23.26,68.74,1.62,4.06,3.77,7.82,5.95,11.59.34.54-.33,1.64-.68,1.64h-24.5l-.75-.75v-11.5c0-1.75-2.98-7.53-3.3-9.78h-36.37c-.58.15-3.54,10.13-3.7,11.41-.43,3.47.57,6.37.39,9.78-.1.33-1.13.84-1.27.84h-24c-.07,0-1.29-.58-1.24-.74,1.92-3.96,4.57-7.68,6.23-11.77,8.99-22.17,14.51-47.13,23.54-69.46l-.28-11.53h37ZM233.5,323.33h25.5l-12.26-40-13.24,40Z"/>
      <path class="cls-1" d="M555.01,19.32c5.94-1.23,10.13-2.25,16.11-.36,16.14,5.11,22,23.98,11.87,37.48-8.79,11.71-40.34,14.13-53.76,20.35-5.95,2.25-6.2-2.37-7.74-6.7-5.02-14.05-8.81-28.59-13.86-42.64-2.86-17.29,14.7-32.02,31.14-26.14,7.74,2.77,14.51,9.87,16.25,18.01Z"/>
      <path class="cls-1" d="M393.5,3.33c-.13,4.13-1.61,8.42-.14,12.39,9.01,22.06,14.21,47.4,23.3,69.2,1.63,3.92,4.58,7.3,5.84,11.41h-26v-11.25c0-.51-2.98-8.94-3.38-9.62-.26-.43-.38-.91-.95-1.05l-35.33-.1c-.61.15-3.99,10.52-4.21,11.89-.57,3.49,1.55,7.14-.37,10.13h-25.25c1.04-4.22,3.99-7.62,5.65-11.6,9.42-22.58,14.85-48.48,24.25-71.27l-.9-10.12h37.5ZM387.5,58.83l-12.51-40-13.49,40h26Z"/>
      <path class="cls-1" d="M232,167.33c-.19-1.38-.48-2.98-.98-4.28-1.11-2.9-8.07-9.74-11.01-10.49-2.41-.61-13.54-.58-16.28-.25-4.1.5-11.62,7.78-12.68,11.82-1.44,5.49-1.03,25.52-.58,31.96.1,1.49.45,4.25.9,5.6.83,2.46,8.63,9.75,11.1,10.4,2.29.6,14.62.54,17.02-.01,3.37-.77,10.34-7.16,11.53-10.47,1.01-2.81,1.29-7.57.97-10.53-.23-2.15-3.5-10.48-2.04-11.53l22.2-.14c2.16.73-.91,7.78-1.12,9.72-.31,2.78-.31,8.18-.06,10.98.23,2.57,2.58,7.75,1.87,9.6l-17.73,16.11c-1.95.91-4.36,2.55-6.49,2.9-5.57.93-29.07.87-34.84.07-6.8-.94-21.79-15.96-22.76-22.74,1.25-14.77-1.76-32.58-.05-46.98.94-7.87,16.24-22.59,24.25-23.25,6.12-.51,30.5-.82,35.38.66s17.53,13.53,19.58,18.42c.85,2.03,2.51,7.31-.07,8.32l-18.12,4.13Z"/>
      <path class="cls-1" d="M424,135.83l-.55,8.25c8.15,23.72,14.3,49.01,23.71,72.34,1.73,4.28,4.73,8.05,5.84,12.41h-25.25l-.75-.75v-12l-3.83-9.17-34.93-.09c-.72,0-.84.35-1.15.85-1.65,2.61-1.95,7.58-3.59,10.41v10.75h-25.5c1.37-4.74,4.39-8.83,6.23-13.52,8.63-22.11,14.52-46.13,23.16-68.34l-.38-11.13h37ZM418.5,191.33l-13.49-40-12.51,40h26Z"/>
      <path class="cls-1" d="M448.33,290c-6.54-7.04-13.3-7.04-22.6-6.2-5.33.48-13.6,7.89-14.24,13.26-1.29,10.7.79,24.28.26,35.27.61,2.71,8.18,10.36,10.78,11.22,3.5,1.16,14.54,1.19,18.09.14,5.06-1.49,13.24-10.4,11.38-16.37,2.39-.58,4.37.56,6.38.88s12.22,1.59,13.13,2.37c1.43,1.22-.08,8.41-.76,10.25-1.72,4.7-14.4,17.21-19.13,18.87-1.49.52-3.77,1.02-5.35,1.15-7.51.64-22.07.69-29.54,0-1.55-.14-4.17-.81-5.58-1.42-4.78-2.08-16.93-14.53-18.61-19.39-.43-1.25-.95-4.06-1.06-5.44-.88-10.71-.89-30.33,0-41.04.56-6.73,2.75-9.3,6.99-13.99,3.88-4.29,10.23-10.98,16-12.02,5.89-1.06,27-.92,33.28-.23,6.75.74,20.51,13.58,22.84,19.66.84,2.18,2.66,9.37.28,10.47l-18.06,3.33-.75-.79c.28-4.26-.95-6.99-3.75-10Z"/>
      <path class="cls-1" d="M327.75,360.83c-.65-.2-.75-1.04-.72-1.67.14-3.16,1.85-6.81,1.99-10.06v-64.44c-.14-.6-1.7-.78-2.26-.83-4.01-.36-11.5-.37-15.5,0-1.76.17-11.27,2.98-11.75,2.5l3.07-18.93,73.38-.02,3.05,18.95c-.65.64-9.88-2.32-11.75-2.5-3.9-.36-12.72-.48-16.52-.03-.73.09-1.29.06-1.72.78v67.5c.57,1,2.85,8.75,1.25,8.75h-22.5Z"/>
      <path class="cls-1" d="M146.25,19.83c-.24.04-.91.73-1.63.87-2.72.51-5.39,1.22-8.12,1.63l3.48-18.77,73.52-.23,3,19c-2.73-.41-5.4-1.11-8.12-1.63-.66-.13-1.54-.87-1.63-.87h-20.75v66.75c.6,2.17,2.29,6.7,2.3,8.72,0,.59-.05.65-.55,1.03h-23.75l2.02-10.23-.02-66.27c-5.96.7-14.06-.94-19.75,0Z"/>
      <path class="cls-1" d="M594,228.83l2.02-10.73-.02-65.77c-6,.47-12.87-.62-18.76,0-2.17.23-9.19,2.81-10.45,2.48l-.59-1.01,3.32-17.94,73.17-.05,3.76,18.24c-.37.77-.87.82-1.65.78-1.36-.07-4.95-1.37-6.81-1.73-.5-.1-1.1-.76-1.24-.76h-20.75l-.02,65.77,2.02,10.73h-24Z"/>
      <path class="cls-1" d="M149.5,135.83c.51.5-1.87,9.09-2.02,10.73-2.07,22.7,1.61,48.51,0,71.54l2.02,10.73h-24l2.02-10.23c-1.64-23.35,2.1-49.53,0-72.54-.3-3.28-1.99-6.82-2.02-10.23h24Z"/>
      <path class="cls-1" d="M460.5,3.33c.48.48-1.87,8.6-2.02,10.23-2.07,23.05,1.61,49.16,0,72.54l2.02,10.23h-23.75l-.53-1.01,2.3-9.72c-1.33-23.13,1.71-48.13,0-71.04-.28-3.81-1.9-7.39-2.02-11.23h24Z"/>
    </g>
  </g>
</svg>